HIERARCHY
ROOT Hips
{
  OFFSET 179.979 97.3047 303.174
  CHANNELS 6 Xposition Yposition Zposition Zrotation Xrotation Yrotation
  JOINT Spine
  {
    OFFSET 0.000859786 9.92346 -1.22733
    CHANNELS 3 Zrotation Xrotation Yrotation
    JOINT Spine1
    {
      OFFSET 0 11.732 0
      CHANNELS 3 Zrotation Xrotation Yrotation
      JOINT Spine2
      {
        OFFSET 0 13.4588 0
        CHANNELS 3 Zrotation Xrotation Yrotation
        JOINT Neck
        {
          OFFSET 2.54812e-05 15.0278 0.877907
          CHANNELS 3 Zrotation Xrotation Yrotation
          JOINT Head
          {
            OFFSET 0 10.3218 3.14243
            CHANNELS 3 Zrotation Xrotation Yrotation
            End Site
            {
              OFFSET 0 0 0
            }
          }
        }
        JOINT LeftShoulder
        {
          OFFSET 6.10582 9.10629 0.757062
          CHANNELS 3 Zrotation Xrotation Yrotation
          JOINT LeftArm
          {
            OFFSET 0 12.9223 0
            CHANNELS 3 Zrotation Xrotation Yrotation
            JOINT LeftForeArm
            {
              OFFSET 0 27.4047 0
              CHANNELS 3 Zrotation Xrotation Yrotation
              JOINT LeftHand
              {
                OFFSET -1.28204e-05 27.6145 0
                CHANNELS 3 Zrotation Xrotation Yrotation
                End Site
                {
                  OFFSET 0 0 0
                }
              }
            }
          }
        }
        JOINT RightShoulder
        {
          OFFSET -6.1057 9.10638 0.757076
          CHANNELS 3 Zrotation Xrotation Yrotation
          JOINT RightArm
          {
            OFFSET 0 12.9223 0
            CHANNELS 3 Zrotation Xrotation Yrotation
            JOINT RightForeArm
            {
              OFFSET 0 27.4047 0
              CHANNELS 3 Zrotation Xrotation Yrotation
              JOINT RightHand
              {
                OFFSET 1.28428e-05 27.6145 1.44975e-05
                CHANNELS 3 Zrotation Xrotation Yrotation
                End Site
                {
                  OFFSET 0 0 0
                }
              }
            }
          }
        }
      }
    }
  }
  JOINT LeftUpLeg
  {
    OFFSET 9.12387 -6.65719 -0.0554031
    CHANNELS 3 Zrotation Xrotation Yrotation
    JOINT LeftLeg
    {
      OFFSET 0 40.5994 0
      CHANNELS 3 Zrotation Xrotation Yrotation
      JOINT LeftFoot
      {
        OFFSET 0 42.099 0
        CHANNELS 3 Zrotation Xrotation Yrotation
        JOINT LeftToeBase
        {
          OFFSET 0 15.7216 0
          CHANNELS 3 Zrotation Xrotation Yrotation
          End Site
          {
            OFFSET 0 0 0
          }
        }
      }
    }
  }
  JOINT RightUpLeg
  {
    OFFSET -9.12503 -6.6556 -0.0553527
    CHANNELS 3 Zrotation Xrotation Yrotation
    JOINT RightLeg
    {
      OFFSET 0 40.5994 0
      CHANNELS 3 Zrotation Xrotation Yrotation
      JOINT RightFoot
      {
        OFFSET 0 42.099 0
        CHANNELS 3 Zrotation Xrotation Yrotation
        JOINT RightToeBase
        {
          OFFSET 0 15.7216 0
          CHANNELS 3 Zrotation Xrotation Yrotation
          End Site
          {
            OFFSET 0 0 0
          }
        }
      }
    }
  }
}
MOTION
Frames:	11
Frame Time:	0.0333333
113.992 96.925 -192.846 -2.7565 -7.13897 -21.5702 -0.372355 -3.09335 -0.518391 -0.717776 7.76531 -0.923921 -0.606367 14.3589 -0.945134 4.34642 -8.5247 3.2155 -1.6388 -5.65474 4.50953 -104.846 -12.2043 90.9228 35.9298 49.0797 7.45966 59.2464 -14.7934 -0.30222 -3.76034 -16.4803 8.94202 105.71 -3.90972 -92.9285 -4.48655 52.7962 -38.9616 -34.3086 -13.7754 0.855574 14.3593 -1.49426 -29.1124 177.376 -8.39983 -6.74387 -3.67408 -24.2119 -3.41387 58.0517 85.4201 -50.8358 -0.965263 26.367 -3.60229 174.949 23.504 0.531045 5.89453 -34.1442 15.2282 -16.1696 65.3046 21.4065 0.963532 26.3682 3.55537 
112.199 96.524 -189.518 -2.47795 -6.97 -20.1204 -0.347306 -3.12895 -0.843716 -0.645241 7.69568 -1.5847 -0.455304 14.2876 -1.62073 4.75988 -8.84904 3.12083 -1.86543 -5.64075 4.5505 -104.272 -12.0183 90.9495 37.0683 48.0335 3.22012 63.1338 -13.6189 -0.166353 -3.38451 -16.6384 9.22381 105.998 -4.21926 -92.8856 -2.23236 53.3205 -41.2356 -33.7596 -13.5899 0.844639 14.5622 -1.03169 -29.5583 178.164 -11.1135 -6.44555 -3.96874 -23.3359 -2.60088 62.8073 86.4494 -56.0604 -0.965263 26.367 -3.60229 174.886 21.9557 0.431908 5.67468 -22.2431 15.6128 -16.8089 65.9531 24.7371 0.963532 26.3682 3.55537 
110.279 95.7401 -186.064 -2.00024 -7.20266 -18.6092 -0.388632 -3.10214 -1.15023 -0.707157 7.75149 -2.1869 -0.445586 14.341 -2.23686 5.18753 -9.026 2.9576 -2.08401 -5.7273 4.53296 -103.847 -11.8058 90.9843 37.8018 47.0193 0.128121 65.5495 -12.7671 -0.0753481 -3.11029 -16.835 9.09104 106.216 -4.50172 -92.8406 -0.0655238 53.6031 -43.2413 -33.5301 -13.4158 0.836639 14.7582 -0.509235 -29.8154 178.826 -13.4737 -6.65791 -3.87927 -23.991 -1.36634 81.7164 87.8295 -75.5246 -0.965263 26.367 -3.60229 174.568 20.7919 1.98234 5.2798 -15.4276 14.6543 -15.6943 68.5099 26.8061 0.963532 26.3682 3.55537 
108.426 95.1178 -182.701 -2.03442 -7.24834 -17.2032 -0.311688 -3.07103 -1.38352 -0.535268 7.81337 -2.6791 -0.215133 14.4004 -2.74057 5.54556 -9.14787 2.71063 -2.24888 -5.6699 4.41127 -103.568 -11.6525 91.0092 38.2976 46.2954 -1.5878 66.4834 -12.4371 -0.0391652 -2.79498 -17.1728 8.9922 106.352 -4.78223 -92.7869 1.57983 53.833 -44.704 -33.3275 -13.2851 0.830262 14.9305 -0.090789 -29.6116 179.802 -14.9442 -6.68132 -3.08161 -25.8136 -0.273279 96.0509 88.5777 -90.4056 -0.965263 26.367 -3.60229 174.9 20.7947 5.2095 4.91935 -16.1287 14.0603 -16.6279 68.8586 26.1155 0.963532 26.3682 3.55537 
106.503 94.5772 -179.215 -2.6523 -7.24887 -15.8922 -0.0904342 -3.05661 -1.53186 -0.0783586 7.83721 -3.04613 0.285357 14.4221 -3.11597 5.69125 -9.13026 2.36418 -2.36088 -5.44033 4.14056 -103.582 -11.5783 91.026 38.2694 45.9589 -1.49464 66.0108 -12.6643 -0.059907 -2.6429 -17.5613 9.025 106.489 -5.12416 -92.7177 2.88823 53.9532 -45.8834 -32.7866 -13.2215 0.823988 14.9999 0.0611703 -29.0255 -178.667 -15.7976 -6.8894 -1.63523 -28.9917 1.00734 63.8793 89.1455 -58.8224 -0.965263 26.367 -3.60229 175.714 21.3502 8.21081 4.87346 -20.9344 13.9142 -16.3401 64.8712 21.4282 0.963532 26.3682 3.55537 
104.569 94.5747 -175.781 -4.70127 -6.98076 -14.7199 0.473601 -3.04566 -1.59499 1.06399 7.84212 -3.34925 1.46361 14.425 -3.4256 5.59536 -8.80088 1.93346 -2.59121 -5.26142 3.76546 -104.019 -11.5902 91.0376 37.684 46.1967 0.301906 64.2466 -13.358 -0.130053 -2.85632 -17.8018 9.11976 106.751 -5.47965 -92.6557 3.31198 53.8873 -46.4057 -31.5897 -13.23 0.815126 15.0415 -0.0518827 -28.0666 -175.078 -15.0878 -7.52077 0.11657 -34.2164 3.0455 -2.85456 86.0764 7.23679 -0.965263 26.367 -3.60229 178.722 20.456 8.7948 4.98749 -23.301 14.4369 -21.9884 62.9417 19.9418 0.963532 26.3682 3.55537 
102.515 94.7005 -172.317 -7.19239 -6.67208 -13.5666 1.17281 -3.05104 -1.63693 2.47678 7.80514 -3.65156 2.91208 14.3859 -3.73397 5.3884 -8.33043 1.48696 -3.05046 -5.15131 3.3929 -104.635 -11.6828 91.0366 36.567 47.1789 3.33269 61.339 -14.3045 -0.235334 -3.4633 -17.9191 9.28848 107.041 -5.67254 -92.6344 2.73793 53.5748 -46.1501 -29.8079 -13.359 0.805556 15.2971 -0.0979674 -27.0369 -170.534 -11.8685 -8.68705 2.60276 -42.3223 5.93127 -5.09166 77.9069 9.15883 -0.965263 26.367 -3.60229 -177.913 19.1131 8.38894 5.42878 -25.6721 15.654 -27.276 63.8568 22.064 0.963532 26.3682 3.55537 
100.504 94.9959 -168.91 -9.14872 -6.51481 -12.1934 1.76001 -3.03829 -1.71979 3.66711 7.80245 -4.00142 4.14383 14.3805 -4.09132 5.24428 -8.16219 1.02873 -3.5297 -4.92665 3.01592 -104.993 -11.7512 91.0322 35.1882 48.8355 7.087 57.5529 -15.2031 -0.355192 -4.52878 -17.986 9.27562 107.212 -5.64912 -92.6553 1.01892 53.2443 -44.5626 -28.0725 -13.6951 0.803301 15.8786 0.202275 -26.743 -166.152 -6.63119 -9.05287 6.30964 -51.9167 10.0868 -7.83642 67.1039 8.48578 -0.965263 26.367 -3.60229 -175.643 17.0097 9.25288 5.97917 -27.2859 16.3951 -30.6063 66.5034 25.9132 0.963532 26.3682 3.55537 
98.6111 95.6568 -165.544 -9.68458 -6.84689 -10.7399 1.97304 -2.96811 -1.77942 4.10435 7.93017 -4.19033 4.60371 14.5067 -4.28551 5.19308 -8.34495 0.446939 -3.65255 -4.71627 2.46421 -105.055 -11.7294 91.0392 33.7849 50.4396 11.7449 53.08 -15.8336 -0.47069 -6.01122 -17.6063 8.48343 107.451 -5.57914 -92.6942 -1.52062 52.9741 -41.3059 -27.0948 -14.2263 0.814316 16.4503 0.478626 -27.4476 -163.916 -0.277946 -8.58094 11.1096 -61.222 14.3791 -7.75505 56.6029 5.47999 -0.965263 26.367 -3.60229 -174.731 13.6677 10.8967 6.07404 -26.9051 16.2736 -33.2477 68.6892 28.9206 0.963532 26.3682 3.55537 
97.1044 96.3171 -162.472 -9.45799 -7.31866 -9.62991 1.95112 -2.85857 -1.68837 4.05934 8.15356 -4.00553 4.53723 14.7316 -4.09839 5.02662 -8.39036 -0.307621 -3.28223 -4.84843 1.62408 -105.193 -11.7432 91.0404 32.6023 51.2068 17.4262 47.9272 -16.0875 -0.570575 -7.41708 -16.0939 6.91634 107.92 -5.5702 -92.7388 -4.25671 52.6045 -36.8747 -27.0739 -14.8046 0.835831 16.4955 -0.0844715 -27.9219 -163.793 5.16145 -7.89901 16.1201 -68.1289 15.367 -6.49051 53.4388 -0.445617 -0.965263 26.367 -3.60229 -174.299 10.3536 11.1891 6.03256 -25.7871 16.5435 -35.9709 70.0802 32.2779 0.963532 26.3682 3.55537 
95.9574 97.0274 -159.471 -8.66272 -7.67079 -9.50441 1.7874 -2.78812 -1.35682 3.70805 8.31333 -3.29126 4.10136 14.8967 -3.36854 4.55475 -8.01427 -1.08651 -2.68462 -5.16498 0.651123 -105.564 -11.9432 91.0044 31.2604 51.5461 23.5621 42.3824 -15.8737 -0.639538 -8.24032 -13.4448 5.66256 108.208 -5.5017 -92.7823 -6.52921 52.277 -32.5245 -27.9181 -15.3425 0.863866 15.9333 -1.80053 -26.8324 -165.357 9.68831 -8.51016 19.3584 -72.4194 14.2828 2.27273 57.7729 -5.5958 -0.965263 26.367 -3.60229 -174.217 7.09428 9.64933 5.95316 -23.983 17.1932 -38.55 70.7381 35.6479 0.963532 26.3682 3.55537 
